<mxfile host="app.diagrams.net" modified="2023-06-08T18:12:44.383Z" agent="Mozilla/5.0 (Windows NT 10.0; Win64; x64; rv:109.0) Gecko/20100101 Firefox/114.0" etag="WQH6-kqmJ21FoDsBXZuT" version="21.3.7" type="github">
  <diagram name="Page-1" id="hixkbwKqWmd8Y7vbKXrR">
    <mxGraphModel dx="2625" dy="2215" grid="0" gridSize="10" guides="1" tooltips="1" connect="1" arrows="1" fold="1" page="0" pageScale="1" pageWidth="850" pageHeight="1100" background="#ffffff" math="0" shadow="0">
      <root>
        <mxCell id="0" />
        <mxCell id="1" parent="0" />
        <mxCell id="Af5QbUGjKGQO8_CQNk8V-8" value="&lt;font style=&quot;font-size: 30px;&quot;&gt;Initialize pbtforme&lt;br&gt;&lt;/font&gt;" style="shape=cube;whiteSpace=wrap;html=1;boundedLbl=1;backgroundOutline=1;darkOpacity=0.05;darkOpacity2=0.1;fillStyle=auto;flipV=0;flipH=0;labelBackgroundColor=none;fillColor=#182E3E;strokeColor=#FFFFFF;fontColor=#FFFFFF;" vertex="1" parent="1">
          <mxGeometry x="228" y="-422" width="392" height="80" as="geometry" />
        </mxCell>
        <mxCell id="Af5QbUGjKGQO8_CQNk8V-12" value="&lt;font style=&quot;font-size: 30px;&quot;&gt;Configure GPIO&lt;br&gt;&lt;/font&gt;" style="shape=cube;whiteSpace=wrap;html=1;boundedLbl=1;backgroundOutline=1;darkOpacity=0.05;darkOpacity2=0.1;fillStyle=auto;flipV=0;flipH=0;labelBackgroundColor=none;fillColor=#182E3E;strokeColor=#FFFFFF;fontColor=#FFFFFF;" vertex="1" parent="1">
          <mxGeometry x="225" y="-250" width="392" height="80" as="geometry" />
        </mxCell>
        <mxCell id="Af5QbUGjKGQO8_CQNk8V-14" value="&lt;font style=&quot;font-size: 30px;&quot;&gt;Microblaze interrupt&lt;br&gt;&lt;/font&gt;" style="shape=cube;whiteSpace=wrap;html=1;boundedLbl=1;backgroundOutline=1;darkOpacity=0.05;darkOpacity2=0.1;fillStyle=auto;labelBackgroundColor=none;fillColor=#182E3E;strokeColor=#FFFFFF;fontColor=#FFFFFF;" vertex="1" parent="1">
          <mxGeometry x="883" y="487" width="392" height="80" as="geometry" />
        </mxCell>
        <mxCell id="Af5QbUGjKGQO8_CQNk8V-15" value="&lt;font style=&quot;font-size: 30px;&quot;&gt;Read and compare&lt;br&gt;&lt;/font&gt;" style="shape=cube;whiteSpace=wrap;html=1;boundedLbl=1;backgroundOutline=1;darkOpacity=0.05;darkOpacity2=0.1;fillStyle=auto;flipV=0;flipH=0;labelBackgroundColor=none;fillColor=#182E3E;strokeColor=#FFFFFF;fontColor=#FFFFFF;" vertex="1" parent="1">
          <mxGeometry x="228" y="681" width="392" height="80" as="geometry" />
        </mxCell>
        <mxCell id="Af5QbUGjKGQO8_CQNk8V-16" value="&lt;font style=&quot;font-size: 30px;&quot;&gt;Configure Mail box&lt;br&gt;&lt;/font&gt;" style="shape=cube;whiteSpace=wrap;html=1;boundedLbl=1;backgroundOutline=1;darkOpacity=0.05;darkOpacity2=0.1;fillStyle=auto;flipV=0;flipH=0;labelBackgroundColor=none;fillColor=#182E3E;strokeColor=#FFFFFF;fontColor=#FFFFFF;" vertex="1" parent="1">
          <mxGeometry x="225" y="-74" width="392" height="80" as="geometry" />
        </mxCell>
        <mxCell id="Af5QbUGjKGQO8_CQNk8V-17" value="&lt;font style=&quot;font-size: 30px;&quot;&gt;Configure Mutex&lt;br&gt;&lt;/font&gt;" style="shape=cube;whiteSpace=wrap;html=1;boundedLbl=1;backgroundOutline=1;darkOpacity=0.05;darkOpacity2=0.1;fillStyle=auto;flipV=0;flipH=0;labelBackgroundColor=none;fillColor=#182E3E;strokeColor=#FFFFFF;fontColor=#FFFFFF;" vertex="1" parent="1">
          <mxGeometry x="225" y="102" width="392" height="80" as="geometry" />
        </mxCell>
        <mxCell id="Af5QbUGjKGQO8_CQNk8V-18" value="&lt;font style=&quot;font-size: 30px;&quot;&gt;Set data for BREAM&lt;br&gt;&lt;/font&gt;" style="shape=cube;whiteSpace=wrap;html=1;boundedLbl=1;backgroundOutline=1;darkOpacity=0.05;darkOpacity2=0.1;fillStyle=auto;flipV=0;flipH=0;labelBackgroundColor=none;fillColor=#182E3E;strokeColor=#FFFFFF;fontColor=#FFFFFF;" vertex="1" parent="1">
          <mxGeometry x="228" y="293" width="392" height="80" as="geometry" />
        </mxCell>
        <mxCell id="Af5QbUGjKGQO8_CQNk8V-19" value="&lt;font style=&quot;font-size: 30px;&quot;&gt;Send data to mail box&lt;br&gt;&lt;/font&gt;" style="shape=cube;whiteSpace=wrap;html=1;boundedLbl=1;backgroundOutline=1;darkOpacity=0.05;darkOpacity2=0.1;fillStyle=auto;flipV=0;flipH=0;labelBackgroundColor=none;fillColor=#182E3E;strokeColor=#FFFFFF;fontColor=#FFFFFF;" vertex="1" parent="1">
          <mxGeometry x="228" y="487" width="392" height="80" as="geometry" />
        </mxCell>
        <mxCell id="Af5QbUGjKGQO8_CQNk8V-23" value="" style="endArrow=classic;html=1;rounded=0;strokeColor=#23445D;exitX=0;exitY=0;exitDx=206;exitDy=80;exitPerimeter=0;" edge="1" parent="1">
          <mxGeometry width="50" height="50" relative="1" as="geometry">
            <mxPoint x="424.33000000000004" y="-165" as="sourcePoint" />
            <mxPoint x="423.33000000000004" y="-74" as="targetPoint" />
          </mxGeometry>
        </mxCell>
        <mxCell id="Af5QbUGjKGQO8_CQNk8V-25" value="" style="endArrow=classic;html=1;rounded=0;strokeColor=#23445D;exitX=0;exitY=0;exitDx=206;exitDy=80;exitPerimeter=0;" edge="1" parent="1">
          <mxGeometry width="50" height="50" relative="1" as="geometry">
            <mxPoint x="423.83" y="3" as="sourcePoint" />
            <mxPoint x="423.33" y="102" as="targetPoint" />
          </mxGeometry>
        </mxCell>
        <mxCell id="Af5QbUGjKGQO8_CQNk8V-26" value="" style="endArrow=classic;html=1;rounded=0;strokeColor=#23445D;exitX=0;exitY=0;exitDx=206;exitDy=80;exitPerimeter=0;" edge="1" parent="1">
          <mxGeometry width="50" height="50" relative="1" as="geometry">
            <mxPoint x="423.83" y="186" as="sourcePoint" />
            <mxPoint x="423.33" y="293" as="targetPoint" />
          </mxGeometry>
        </mxCell>
        <mxCell id="Af5QbUGjKGQO8_CQNk8V-27" value="" style="endArrow=classic;html=1;rounded=0;strokeColor=#23445D;exitX=0;exitY=0;exitDx=206;exitDy=80;exitPerimeter=0;" edge="1" parent="1">
          <mxGeometry width="50" height="50" relative="1" as="geometry">
            <mxPoint x="424.33000000000004" y="-341" as="sourcePoint" />
            <mxPoint x="423.33000000000004" y="-250" as="targetPoint" />
          </mxGeometry>
        </mxCell>
        <mxCell id="Af5QbUGjKGQO8_CQNk8V-30" value="" style="endArrow=classic;html=1;rounded=0;strokeColor=#23445D;exitX=0;exitY=0;exitDx=206;exitDy=80;exitPerimeter=0;" edge="1" parent="1">
          <mxGeometry width="50" height="50" relative="1" as="geometry">
            <mxPoint x="423.83" y="574" as="sourcePoint" />
            <mxPoint x="423.33" y="681" as="targetPoint" />
          </mxGeometry>
        </mxCell>
        <mxCell id="Af5QbUGjKGQO8_CQNk8V-31" value="" style="endArrow=classic;html=1;rounded=0;strokeColor=#23445D;exitX=0;exitY=0;exitDx=206;exitDy=80;exitPerimeter=0;" edge="1" parent="1">
          <mxGeometry width="50" height="50" relative="1" as="geometry">
            <mxPoint x="626" y="526.33" as="sourcePoint" />
            <mxPoint x="869.5" y="526.33" as="targetPoint" />
          </mxGeometry>
        </mxCell>
        <mxCell id="Af5QbUGjKGQO8_CQNk8V-32" value="" style="endArrow=classic;html=1;rounded=0;strokeColor=#23445D;exitX=0;exitY=0;exitDx=206;exitDy=80;exitPerimeter=0;" edge="1" parent="1">
          <mxGeometry width="50" height="50" relative="1" as="geometry">
            <mxPoint x="423.83" y="380" as="sourcePoint" />
            <mxPoint x="423.33" y="487" as="targetPoint" />
          </mxGeometry>
        </mxCell>
      </root>
    </mxGraphModel>
  </diagram>
</mxfile>
